<?xml version="1.0" standalone="no"?>
<!DOCTYPE svg PUBLIC "-//W3C//DTD SVG 20010904//EN"
 "http://www.w3.org/TR/2001/REC-SVG-20010904/DTD/svg10.dtd">
<svg version="1.0" xmlns="http://www.w3.org/2000/svg"
 width="300.000000pt" height="300.000000pt" viewBox="0 0 300.000000 300.000000"
 preserveAspectRatio="xMidYMid meet">
<metadata>
Created by potrace 1.14, written by Peter Selinger 2001-2017
</metadata>
<g transform="translate(0.000000,300.000000) scale(0.100000,-0.100000)"
fill="#000000" stroke="none">
<path d="M1368 2965 c-2 -1 -34 -5 -73 -9 -211 -20 -457 -116 -646 -252 -81
-58 -239 -208 -301 -284 -122 -151 -219 -343 -267 -525 -10 -40 -14 -57 -25
-125 -3 -19 -9 -53 -12 -75 -17 -98 -7 -368 17 -491 5 -28 12 -62 14 -77 19
-104 123 -332 204 -450 101 -146 267 -310 408 -406 175 -117 396 -199 618
-227 67 -8 315 -9 386 0 327 38 611 180 852 423 221 224 355 479 402 768 2 17
8 48 11 70 9 52 9 339 0 390 -3 22 -9 56 -12 75 -3 19 -8 46 -10 60 -29 166
-140 405 -262 563 -80 104 -246 263 -338 324 -11 7 -36 24 -58 38 -69 46 -194
105 -298 139 -102 34 -127 40 -202 52 -21 3 -48 8 -60 10 -23 6 -343 14 -348
9z"/>
</g>
</svg>
